<svg xmlns="http://www.w3.org/2000/svg" width="455" height="127" viewBox="0 0 455 127"><style>.st0{fill:#283897}.st2{fill:#00eb5e}.st3{fill:#221c46}</style><g id="_x34_55x127"><g id="logo_transiciรณn"><path class="st0" d="M112.3 55.7l-2.6 13.1c-1.2 5.3-4.3 8.9-10.8 8.9-7.5 0-9.4-4.7-7.8-11.2 2.3-9.3 9.8-12.1 21.2-10.8zM124 37l-7.9.5-2.5 12.8c-3-.1-4-.2-7.5-.2-11.1 0-20.8 4.7-23.4 15.8-2.3 10 3.3 17.7 15.6 17.7 12.6 0 18-6.6 20-15.9L124 37zM38.2 56.3c-11.6-1.1-21.6-.1-21.8 3.9-.2 6 19.1.8 18.8 11.7C34.6 88 7.7 84.3 1 82.2l1.2-4.8c11.5 1.8 23.6 2 23.9-4.4.3-6.8-19.2-.7-18.7-11.7.3-8.2 12.5-12.6 32.4-9.7l-1.6 4.7zM69.4 67.2c-1.7 6.7-7 11-13.3 11-6.6 0-9.6-3.9-7.8-11C50 60.5 55.3 56 61.6 56c6.4 0 9.5 4.5 7.8 11.2zm-6.7-16.7c-11.5 0-20.8 6.7-23.1 16.8-2.3 10 4 16.7 15.5 16.7s20.8-6.7 23.1-16.8c2.3-10-3.9-16.7-15.5-16.7zM196 83.8h-10c-6.1-5.8-17.7-19-26.3-33h7.4c8.1 11.3 28.9 33 28.9 33zM206.6 18.2l4.6-9.7 1.3 9.9 9.4-3.3-6.6 8.5 7.1 5.6-9.5.7-.5 10.3-5.3-7.6-7.8 7.2 2.9-10.2-9.2-1.3 8.9-5.1-3.7-8.8 8.4 3.8zM226.1 67.3c-1.7 6.8-7.1 11.1-13.5 11.1-6.7 0-9.7-3.9-7.9-11.1 1.7-6.8 7.1-11.4 13.5-11.4 6.5 0 9.6 4.6 7.9 11.4zm-6.8-17c-11.7 0-21.1 6.8-23.5 17-2.3 10.2 4 17 15.7 17s21.1-6.8 23.5-17c2.3-10.2-4-17-15.7-17z"/><path d="M152.1 81c18.9-10.6 35.4-26.9 47.1-41-8.4 26.5-28.6 40.7-47.1 41z" fill="#e32b24"/><path class="st0" d="M144.6 55.4c3.6 0 5.6 1.3 5.6 3.9 0 6.7-13 6.3-18.8 5.1 2.1-5.1 6.7-9 13.2-9zm13.4 3.5c0-4.9-3.9-8.5-12.6-8.5-14.2 0-23.4 9.3-23.4 20.8 0 7.4 6.1 13.6 17.3 13.6 7.7 0 12.8-3.8 12.8-3.8-9.8 1.1-21.8 0-21.8-10.6 0-.4 0-.8.1-1.3 13.3 2.9 27.6-.5 27.6-10.2z"/><path class="st2" d="M251.3 56.2l10.8 12.1v2.4l-10.8 12.1H245v-6.3l7.1-6.9-7.1-6.9v-6.3h6.3z"/><path class="st2" d="M266.1 56.2l10.8 12.1v2.4l-10.8 12.1h-6.3v-6.3l7.1-6.9-7.1-6.9v-6.3h6.3z"/><path class="st3" d="M439.5 60.6c3.8 0 5.4 2.7 5.4 4.5h-10.8c0-1.8 1.6-4.5 5.4-4.5zm4.5 12.8c-.7 1.4-2.4 2.3-4.5 2.3-4 0-5.6-2.9-5.6-5.4h19.9c.1-.4.2-1.4.2-2.2 0-9-6.2-14.1-14.5-14.1-8.8 0-15 5.1-15 14.1s6.2 14.1 15 14.1c8.7 0 12.8-4.8 13.9-8.8H444zM300.9 74.1c-3.6 0-6.1-2.6-6.1-6 0-3.2 2.4-6 6.1-6 3.7 0 6.1 2.7 6.1 6 0 3.4-2.4 6-6.1 6zm2.7-19.7c-3.9 0-7.3 1.7-9 3.8V55h-8.9v37h9.2V78.7c2.2 2.3 5.2 3.2 8.2 3.2 9.1 0 13.4-6.9 13.4-13.8-.1-8.4-5.5-13.7-12.9-13.7zM328.7 44.3h-9.3v37.1h9.3V44.3zM351.1 54.9v13.8c0 2.1-.3 3.1-1.1 4.1-.8 1-2.1 1.4-3.6 1.4s-2.7-.5-3.6-1.4c-.9-1-1.1-2-1.1-4.1V54.9h-9.2v14.6c0 4.1.6 6.8 2.6 9.1 2.1 2.4 5.3 3.4 8.4 3.4 3.7 0 6.2-1.4 7.9-3.4v2.9h8.9V54.9h-9.2zM390.4 54.9h-6.3l-6.9 7.1-6.9-7.1H364v6.3l7.1 6.9L364 75v6.3h6.3l6.9-7.1 6.9 7.1h6.3V75l-7.1-6.9 7.1-6.9v-6.3zM407.4 60.6c3.8 0 5.4 2.7 5.4 4.5H402c0-1.8 1.6-4.5 5.4-4.5zm4.5 12.8c-.7 1.4-2.4 2.3-4.5 2.3-4 0-5.6-2.9-5.6-5.4h19.9c.1-.4.2-1.4.2-2.2 0-9-6.2-14.1-14.5-14.1-8.8 0-15 5.1-15 14.1s6.2 14.1 15 14.1c8.7 0 12.8-4.8 13.9-8.8h-9.4z"/><path class="st0" d="M3.5 118.3V96.8h8c4.2 0 6.4 1.9 6.4 5.5 0 2.3-1.1 4-2.8 4.8 1.9.7 3.3 2.1 3.3 4.8 0 4.3-2.4 6.3-6.7 6.3H3.5zM7.2 106h4c1.9 0 2.9-1.5 2.9-3.3 0-2-1-2.8-2.9-2.8h-4v6.1zm0 9.2h4.1c2.2 0 3.2-1 3.2-3.2s-1.1-3-3.3-3h-4v6.2zm20 3.3c-4.2 0-7.2-1.8-7.2-6.3v-3.1c0-4.4 3.1-6.7 7.3-6.7 3.5 0 6.1 1.3 6.1 4.8 0 3-2.1 4.5-5.3 4.5h-4.5v.6c0 2.4 1.7 3.2 3.9 3.2 1.7 0 3.5-.5 4.6-.9h.2v3c-1.3.4-3.5.9-5.1.9zm-3.7-9.5v.2h4c1.8 0 2.5-.7 2.5-2 0-1.5-1.1-1.9-2.7-1.9-2.4 0-3.8 1.1-3.8 3.7zm12.4 9.3v-15.7h3.6v2.7l.9-.8c1.4-1.2 2.7-2.1 4.8-2.1 2.7 0 4.4 1.6 4.4 5.2v10.7H46v-10.1c0-2-.7-2.7-2-2.7s-2.7 1.2-3.6 2l-.9.7v10.1h-3.6zm23.2.2c-4.2 0-7.2-1.8-7.2-6.3v-3.1c0-4.4 3.1-6.7 7.3-6.7 3.5 0 6.1 1.3 6.1 4.8 0 3-2.1 4.5-5.3 4.5h-4.5v.6c0 2.4 1.7 3.2 3.9 3.2 1.7 0 3.5-.5 4.6-.9h.2v3c-1.2.4-3.5.9-5.1.9zm-3.6-9.5v.2h4c1.8 0 2.5-.7 2.5-2 0-1.5-1.1-1.9-2.7-1.9-2.5 0-3.8 1.1-3.8 3.7zm22.7 9.3v-12.7h-6.3v12.7h-3.6v-12.7h-2.4v-3h2.4v-.6c0-3.4 2.1-5.2 5.4-5.2H76v2.8h-1.5c-1.7 0-2.5.7-2.5 2.5v.5h9.8v15.7h-3.6zm0-18.3v-3.2h3.6v3.2h-3.6zm13.3 18.5c-4.2 0-7.3-2-7.3-6.4v-2.9c0-4.3 3.4-6.7 7.1-6.7 1.9 0 3.7.5 4.9 1.1v4.6h-3v-2.3c-.3-.2-1.1-.3-1.8-.3-2 0-3.6 1.1-3.6 3.8v2.4c0 2.5 1.4 3.8 3.8 3.8 1.6 0 3.3-.5 4.3-.9h.2v3c-1 .3-2.9.8-4.6.8zm7.8-18.5v-3.2h3.6v3.2h-3.6zm0 18.3v-12.7h-2.5v-3h6v15.7h-3.5zm13.4.2c-5 0-7.4-2.7-7.4-8.2 0-5.1 2.5-7.9 7.4-7.9 5 0 7.4 2.9 7.4 7.9-.1 5.5-2.5 8.2-7.4 8.2zm0-3.1c2.9 0 3.8-1.9 3.8-5.1s-.9-4.9-3.8-4.9-3.8 1.7-3.8 4.9.9 5.1 3.8 5.1zm13.8 3.1c-1.7 0-3.6-.2-4.9-.6v-3h.2c1.4.3 3.1.5 4.7.5 1.7 0 3.4-.4 3.4-1.8 0-1.1-.9-1.5-1.9-1.7l-2.4-.5c-2.5-.6-4-2-4-4.3 0-3.1 2.8-4.7 6.8-4.7 1.5 0 3.1.2 4.2.5v3h-.2c-1.2-.2-2.6-.4-4.1-.4-1.7 0-3.1.4-3.1 1.6 0 1.1.8 1.3 1.8 1.5l2.1.5c2.3.5 4.4 1.5 4.4 4.6 0 3.6-3.3 4.8-7 4.8zm21.9 0c-4.2 0-7.2-1.8-7.2-6.3v-3.1c0-4.4 3.1-6.7 7.3-6.7 3.5 0 6.1 1.3 6.1 4.8 0 3-2.1 4.5-5.3 4.5h-4.5v.6c0 2.4 1.7 3.2 3.9 3.2 1.7 0 3.5-.5 4.6-.9h.2v3c-1.2.4-3.4.9-5.1.9zm-3.6-9.5v.2h4c1.8 0 2.5-.7 2.5-2 0-1.5-1.1-1.9-2.7-1.9-2.5 0-3.8 1.1-3.8 3.7zm18.5 9.3V96.8h3.7v21.5h-3.7zm7.2 0v-15.7h3.6v2.7l.9-.8c1.4-1.2 2.7-2.1 4.8-2.1 2.7 0 4.4 1.6 4.4 5.2v10.7h-3.6v-10.1c0-2-.7-2.7-2-2.7s-2.7 1.2-3.6 2l-.9.7v10.1h-3.6zm23.3.2c-4.2 0-7.3-2-7.3-6.4v-2.9c0-4.3 3.4-6.7 7.1-6.7 1.9 0 3.7.5 4.9 1.1v4.6h-3v-2.3c-.3-.2-1.1-.3-1.8-.3-2 0-3.6 1.1-3.6 3.8v2.4c0 2.5 1.4 3.8 3.8 3.8 1.6 0 3.3-.5 4.3-.9h.2v3c-1 .3-2.9.8-4.6.8zm13.5 0c-4.2 0-7.2-1.8-7.2-6.3v-3.1c0-4.4 3.1-6.7 7.3-6.7 3.5 0 6.1 1.3 6.1 4.8 0 3-2.1 4.5-5.3 4.5h-4.5v.6c0 2.4 1.7 3.2 3.9 3.2 1.7 0 3.5-.5 4.6-.9h.2v3c-1.2.4-3.4.9-5.1.9zm-3.6-9.5v.2h4c1.8 0 2.5-.7 2.5-2 0-1.5-1.1-1.9-2.7-1.9-2.4 0-3.8 1.1-3.8 3.7zm12.4 9.3v-15.7h3.6v2.7l.9-.8c1.4-1.2 2.7-2.1 4.8-2.1 2.7 0 4.4 1.6 4.4 5.2v10.7h-3.6v-10.1c0-2-.7-2.7-2-2.7s-2.7 1.2-3.6 2l-.9.7v10.1h-3.6zm25.9 0h-2.4c-3.6 0-5.9-1.7-5.9-5.6v-7h-2.4v-3h2.4v-3.8h3.6v3.8h4.3v3h-4.3v6.3c0 2.6.8 3.4 3.2 3.4h1.6v2.9zm2-18.3v-3.2h3.6v3.2H244zm0 18.3v-12.7h-2.5v-3h6v15.7H244zm10.3 0c-1.6-1.3-4.5-6.3-4.5-11.6v-4h3.6v4c0 4.1 1.5 7.6 3.1 9.2 1.5-1.6 3-5.1 3-9.2v-4h3.6v4c0 5.4-3.1 10.3-4.7 11.6h-4.1zm17.3.2c-5 0-7.4-2.7-7.4-8.2 0-5.1 2.5-7.9 7.4-7.9 5 0 7.4 2.9 7.4 7.9-.1 5.5-2.5 8.2-7.4 8.2zm0-3.1c2.9 0 3.8-1.9 3.8-5.1s-.9-4.9-3.8-4.9-3.8 1.7-3.8 4.9.9 5.1 3.8 5.1zm13.8 3.1c-1.7 0-3.6-.2-4.9-.6v-3h.2c1.4.3 3.1.5 4.7.5 1.7 0 3.4-.4 3.4-1.8 0-1.1-.9-1.5-1.9-1.7l-2.4-.5c-2.5-.6-4-2-4-4.3 0-3.1 2.8-4.7 6.8-4.7 1.5 0 3.1.2 4.2.5v3h-.2c-1.2-.2-2.6-.4-4.1-.4-1.7 0-3.1.4-3.1 1.6 0 1.1.8 1.3 1.8 1.5l2.1.5c2.3.5 4.4 1.5 4.4 4.6 0 3.6-3.3 4.8-7 4.8z"/></g></g></svg>