<?xml version="1.0" encoding="utf-8"?>
<!-- Generator: Adobe Illustrator 21.0.2, SVG Export Plug-In . SVG Version: 6.00 Build 0)  -->
<svg version="1.1" id="Capa_1" xmlns="http://www.w3.org/2000/svg" xmlns:xlink="http://www.w3.org/1999/xlink" x="0px" y="0px"
	 viewBox="0 0 546.3 226.4" style="enable-background:new 0 0 546.3 226.4;" xml:space="preserve">
<style type="text/css">
	.st0{fill:#FFFFFF;}
</style>
<g>
	<g>
		<path class="st0" d="M383.9,140.1c0,1.2,0,2.5,0.2,3.4h-2.7l-0.2-1.7h-0.1c-0.8,1.1-2.2,1.9-4,1.9c-2.7,0-4.2-2-4.2-4.2
			c0-3.6,3.1-5.3,8-5.3c0-1.1,0-3.2-2.9-3.2c-1.3,0-2.6,0.4-3.5,1l-0.6-2c1-0.6,2.7-1.2,4.6-1.2c4.2,0,5.4,2.8,5.4,5.8V140.1z
			 M380.9,136.3c-2.4,0-5.1,0.4-5.1,3c0,1.6,1,2.3,2.1,2.3c1.6,0,3-1.2,3-2.9V136.3z"/>
		<path class="st0" d="M399.5,143.5h-3v-8.4c0-2-0.7-3.7-2.7-3.7c-1.5,0-3.1,1.2-3.1,3.5v8.6h-3v-10.3c0-1.6-0.1-2.8-0.1-4h2.6
			l0.2,2.1h0.1c0.7-1.2,2.2-2.4,4.3-2.4c2.2,0,4.7,1.5,4.7,5.9V143.5z"/>
		<path class="st0" d="M404.8,127c-1,0-1.7-0.8-1.7-1.7c0-1,0.7-1.8,1.8-1.8c1,0,1.7,0.8,1.7,1.8C406.5,126.2,405.9,127,404.8,127z
			 M406.3,143.5h-3v-14.3h3V143.5z"/>
		<path class="st0" d="M421.6,129.2l-5.1,14.3h-2.9l-5-14.3h3.2l2.3,7.6c0.4,1.2,0.7,2.4,1,3.6h0.1c0.3-1.2,0.6-2.4,1-3.6l2.3-7.6
			H421.6z"/>
		<path class="st0" d="M432.4,142.8c-0.4,0.2-1.8,0.9-4.3,0.9c-3.9,0-6.3-2.9-6.3-7c0-4.8,2.7-7.5,6.1-7.5c4.1,0,5.3,3.6,5.3,6.5
			c0,0.2,0,0.3,0,0.4h-10.5c0,4.4,2,6.8,5.5,6.8c2.1,0,3.1-0.5,3.9-0.9L432.4,142.8z M432.2,135.3c0-1.6-0.6-5.4-4.4-5.4
			c-3.2,0-4.7,3.1-5,5.4H432.2z"/>
		<path class="st0" d="M442.3,130.1c-0.2,0-0.4-0.1-0.6-0.1c-2.3,0-3.9,2.5-3.9,5.6v7.8h-0.9v-9.8c0-1.3,0-2.7-0.1-4.1h0.9l0.1,2.9
			h0.1c0.6-1.7,2-3.2,4-3.2c0.2,0,0.3,0,0.5,0.1L442.3,130.1L442.3,130.1z"/>
		<path class="st0" d="M451,130.9c-0.8-0.5-1.7-0.9-2.6-0.9c-1.9,0-3,1.3-3,2.6c0,1.6,1,2.3,3,3.1c2.2,0.9,3.6,1.9,3.6,4.1
			c0,2.4-1.9,3.9-4.5,3.9c-1.3,0-2.4-0.4-3.4-1l0.4-0.8c0.8,0.5,2,1,3,1c1.8,0,3.5-1.1,3.5-3c0-1.7-1-2.6-3.1-3.4
			c-2.2-0.9-3.5-2-3.5-3.7c0-1.9,1.5-3.6,4-3.6c1.2,0,2.3,0.4,3,0.9L451,130.9z"/>
		<path class="st0" d="M463.9,140.2c0,1.1,0,2.2,0.2,3.3h-0.9l-0.2-2.1h-0.1c-0.6,1.1-2.2,2.4-4.5,2.4c-2.8,0-4-1.9-4-3.7
			c0-3.1,2.7-5.1,8.5-5c0-1.6,0-5-3.7-5c-1.2,0-2.4,0.4-3.4,1.1l-0.4-0.7c1.3-0.9,2.8-1.2,3.9-1.2c3.9,0,4.6,3.1,4.6,5.4
			L463.9,140.2L463.9,140.2z M462.9,135.8c-2.7-0.1-7.5,0.4-7.5,4.1c0,2.2,1.5,3.1,3,3.1c3.3,0,4.5-2.7,4.5-3.9V135.8z"/>
		<path class="st0" d="M473.9,130.1c-0.2,0-0.4-0.1-0.6-0.1c-2.3,0-3.9,2.5-3.9,5.6v7.8h-0.9v-9.8c0-1.3,0-2.7-0.1-4.1h0.9l0.1,2.9
			h0.1c0.6-1.7,2-3.2,4-3.2c0.2,0,0.3,0,0.5,0.1L473.9,130.1L473.9,130.1z"/>
		<path class="st0" d="M477.2,126.6c-0.5,0-0.9-0.5-0.9-1s0.4-1,0.9-1s0.9,0.5,0.9,1C478.2,126.2,477.8,126.6,477.2,126.6z
			 M477.7,143.5h-0.9v-13.9h0.9V143.5z"/>
		<path class="st0" d="M494.1,136.4c0,5.2-3.6,7.4-6.5,7.4c-3.6,0-6.3-2.8-6.3-7.1c0-4.8,3.1-7.4,6.4-7.4
			C491.6,129.2,494.1,132.2,494.1,136.4z M487.8,130c-3.7,0-5.5,3.3-5.5,6.6c0,3.5,2.4,6.5,5.4,6.5s5.6-2.7,5.6-6.5
			C493.2,133.5,491.6,130,487.8,130z"/>
	</g>
	<g>
		<g>
			<path class="st0" d="M50.9,222.8c-3.2,1.3-9.8,3.6-18.9,3.6c-20.5,0-32-13.8-32-33.8c0-18,11.2-34.1,34.1-34.1
				c6.9,0,12.5,1.8,15,2.9l-1.2,2.5c-3.5-1.6-7.7-2.9-13.9-2.9c-19.2,0-30.7,13.1-30.7,31.6c0,16.5,9.8,31.2,29.6,31.2
				c7.6,0,12.1-1.2,14.9-2.7v-24.8H31.7v-2.7h19.4v29.2H50.9z"/>
		</g>
		<g>
			<path class="st0" d="M297.8,162.7h-22.2v63.7h-3.1v-63.7h-22.3V160h47.5L297.8,162.7L297.8,162.7z"/>
		</g>
		<g>
			<path class="st0" d="M96.7,205.7c0,15.4-8.3,20.7-17.3,20.7c-8.1,0-16.2-4.8-16.2-20.1v-30.9h2.3v30.3c0,13.4,6.4,18.7,14,18.7
				c8.6,0,14.8-5.8,14.8-18.7v-30.3h2.3L96.7,205.7L96.7,205.7z"/>
			<path class="st0" d="M143.6,225.6h-2.3l-20.2-30.7c-3.8-5.9-7.1-10.8-9.7-15.8l-0.2,0.1c0.4,5.3,0.4,8.4,0.4,19.5v27h-2.3v-50.2
				h2.2l20.8,31.4c4.2,6.4,7,10.7,9.4,15.4l0.1-0.1c-0.5-6.7-0.5-12.2-0.5-20.1v-26.6h2.3L143.6,225.6L143.6,225.6z"/>
			<path class="st0" d="M190.4,225.6h-2.3l-20.2-30.7c-3.8-5.9-7.1-10.8-9.7-15.8l-0.2,0.1c0.4,5.3,0.4,8.4,0.4,19.5v27h-2.3v-50.2
				h2.2l20.8,31.4c4.2,6.4,7,10.7,9.4,15.4l0.1-0.1c-0.5-6.7-0.5-12.2-0.5-20.1v-26.6h2.3V225.6z"/>
			<path class="st0" d="M202.9,175.4h2.3v50.2h-2.3V175.4z"/>
		</g>
		<g>
			<path class="st0" d="M309.8,201.3c4.1,1.3,6.7,5.1,7.9,10.8c1.7,8.2,2.7,11.5,3.7,13.5h-2.5c-0.8-1.5-1.9-6-3.3-12.4
				c-1.6-7.4-4.8-11.2-11.7-11.2h-8.5v23.6h-2.3v-49.5c3-0.7,7.1-1.1,10.2-1.1c6.4,0,10.3,1.4,13,4.3c2.1,2,3.4,5.4,3.4,8.8
				c0,6.8-3.9,11-10,13.1L309.8,201.3L309.8,201.3z M303.8,200.1c8,0,13.6-4.7,13.6-11.6c0-8.9-7-11.6-14.3-11.6
				c-3.5,0-6.2,0.5-7.5,0.9v22.3L303.8,200.1L303.8,200.1z"/>
			<path class="st0" d="M354.8,225.6h-25v-50.2h23.8v2.1h-21.5v20.6h20.3v2.1h-20.3v23.4h22.7V225.6z"/>
			<path class="st0" d="M398,225.6h-2.3l-20.2-30.7c-3.8-5.9-7.1-10.8-9.7-15.8l-0.2,0.1c0.4,5.3,0.4,8.4,0.4,19.5v27h-2.3v-50.2
				h2.2l20.8,31.4c4.2,6.4,7,10.7,9.4,15.4l0.1-0.1c-0.5-6.7-0.5-12.2-0.5-20.1v-26.6h2.3V225.6z"/>
			<path class="st0" d="M439.1,177.5h-16.8v48.1H420v-48.1h-16.8v-2.1h35.9V177.5z"/>
			<path class="st0" d="M444.2,175.4h2.3v50.2h-2.3V175.4z"/>
			<path class="st0" d="M493.5,225.6h-2.4l-20.2-30.7c-3.8-5.9-7.1-10.8-9.7-15.8l-0.2,0.1c0.4,5.3,0.4,8.4,0.4,19.5v27h-2.3v-50.2
				h2.2l20.8,31.4c4.2,6.4,7,10.7,9.4,15.4l0.1-0.1c-0.5-6.7-0.5-12.2-0.5-20.1v-26.6h2.3v50.1H493.5z"/>
			<path class="st0" d="M546.3,200c0,17.9-11,26.4-22.1,26.4c-12,0-21.7-9.4-21.7-25.4c0-16.7,9.8-26.4,22.2-26.4
				C537.3,174.6,546.3,184.5,546.3,200z M505,200.9c0,10.7,6.7,23.5,19.3,23.5c12.5,0,19.5-11.4,19.5-24.3
				c0-10.8-5.8-23.7-19.1-23.7C511.1,176.6,505,189.1,505,200.9z"/>
		</g>
		<g>
			<path class="st0" d="M249.3,209.7c-0.5,3.6-1.3,8.2-3.8,11.2c1.6,1.6,3,3,4.8,4.9h-2c-1-1.1-2.2-2.2-3.7-3.7
				c-3.3,3.3-6.1,4.2-9.4,4.2c-4.7,0-8.5-3.7-8.5-8.6c0-4.3,2.7-7.2,6.1-9.2v-0.1c-1.8-2.5-2.8-4.7-2.8-6.9c0-3.7,2.5-7.2,6.7-7.2
				c3.1,0,5.6,2.3,5.6,6c0,3.4-2,5.9-7.5,8.5v0.1c3.4,4,7.2,8.3,9.7,11.2c2.1-3.1,2.9-7.2,3.3-10.4H249.3z M243.7,221.3
				c-1.8-2.1-5.9-6.7-10.1-11.7c-2.1,1.2-5.4,3.7-5.4,8s3,7.6,7.4,7.6C239.6,225.2,242.4,222.8,243.7,221.3z M231.6,201.4
				c0,2.8,1.3,4.7,2.6,6.5c4-2,6.7-4,6.7-7.4c0-2.3-1.2-5-4.4-5C233.3,195.5,231.6,198.4,231.6,201.4z"/>
		</g>
	</g>
	<path class="st0" d="M257.2,141.9c0,0.5-0.1,1-0.1,1.6h40c0.1-1.6,0.2-3.2,0.2-4.8c0-43.9-33.4-63.8-69-63.8
		c-4.3,0-7.5,0.3-11.3,0.8l5.4-39.9h69.2V2.9h-97.5L181.7,105c6.7-0.8,13.7-1.3,22.9-1.3C239.1,103.7,257.2,117.4,257.2,141.9z"/>
	<path class="st0" d="M413.1,104.8c0,4.2-0.1,8.2-0.2,12h39.7c0.2-4.2,0.4-8.4,0.4-12.8c0-56.6-18.6-104-66.5-104
		c-45.8,0-68.7,43.6-68.7,105.6c0,13.3,1.1,26.1,3.4,37.9h39.4c-1.9-10.6-2.9-23.5-2.9-38.7c0-48.5,11-73.3,28.3-73.3
		C404.8,31.5,413.1,58.7,413.1,104.8z"/>
</g>
</svg>
